<svg width="42" height="43" viewBox="0 0 42 43" fill="none" xmlns="http://www.w3.org/2000/svg">
<path d="M32.7092 12.689C31.5068 12.689 30.4413 12.2232 29.5127 11.2915C28.584 10.3602 28.1197 9.29418 28.1197 8.09352C28.1197 6.69085 28.5697 5.31051 29.4697 3.95251C30.3697 2.59418 31.2277 1.38568 32.0437 0.327014C32.221 0.119014 32.4408 0.0150146 32.7032 0.0150146C32.9655 0.0150146 33.1895 0.119014 33.3752 0.327014C34.1912 1.37801 35.0512 2.58451 35.9552 3.94651C36.8592 5.30852 37.3112 6.69085 37.3112 8.09352C37.3112 9.29418 36.8447 10.3602 35.9117 11.2915C34.9787 12.2232 33.9112 12.689 32.7092 12.689ZM8.31467 42.299C6.17834 42.299 4.37534 41.5647 2.90567 40.096C1.43601 38.6277 0.701172 36.8262 0.701172 34.6915V23.461C0.701172 22.5123 0.928172 21.6112 1.38217 20.7575C1.83617 19.9038 2.45851 19.2192 3.24917 18.7035L18.5457 8.85452C18.9117 8.58852 19.2677 8.51185 19.6137 8.62451C19.9597 8.73718 20.27 8.92285 20.5447 9.18152C21.1343 9.72718 21.4902 10.388 21.6122 11.164C21.7345 11.9404 21.6005 12.6762 21.2102 13.3715L18.5587 17.6415H35.6797C36.1343 17.6415 36.5178 17.7978 36.8302 18.1105C37.1428 18.4235 37.2992 18.8077 37.2992 19.263C37.2992 19.6933 37.1428 20.0685 36.8302 20.3885C36.5178 20.7085 36.1343 20.8685 35.6797 20.8685H15.9902C15.3185 20.8685 14.8192 20.5843 14.4922 20.016C14.1648 19.4473 14.1592 18.8812 14.4752 18.3175L17.4937 13.375L5.03067 21.4565C4.67201 21.6818 4.39867 21.9674 4.21067 22.313C4.02267 22.6587 3.92867 23.0413 3.92867 23.461V34.6915C3.92867 35.8988 4.35684 36.9307 5.21317 37.787C6.06951 38.6433 7.10134 39.0715 8.30867 39.0715H33.6797C34.1343 39.0715 34.5178 39.228 34.8302 39.541C35.1428 39.854 35.2992 40.2382 35.2992 40.6935C35.2992 41.1238 35.1428 41.499 34.8302 41.819C34.5178 42.139 34.1343 42.299 33.6797 42.299H8.31467ZM39.6797 28.012H22.3142C21.8538 28.012 21.4698 27.8575 21.1622 27.5485C20.8548 27.2392 20.7012 26.8557 20.7012 26.398C20.7012 25.94 20.8548 25.5567 21.1622 25.248C21.4698 24.9393 21.8538 24.785 22.3142 24.785H39.6747C40.1347 24.785 40.5205 24.9413 40.8322 25.254C41.1435 25.567 41.2992 25.9512 41.2992 26.4065C41.2992 26.8368 41.1428 27.212 40.8302 27.532C40.5178 27.852 40.1343 28.012 39.6797 28.012ZM37.6917 35.1555H22.3132C21.8535 35.1555 21.4698 35.001 21.1622 34.692C20.8548 34.3827 20.7012 33.9992 20.7012 33.5415C20.7012 33.0835 20.8548 32.7002 21.1622 32.3915C21.4698 32.0829 21.8535 31.9285 22.3132 31.9285H37.6872C38.1468 31.9285 38.5325 32.0849 38.8442 32.3975C39.1555 32.7105 39.3112 33.0947 39.3112 33.55C39.3112 33.9804 39.1548 34.3555 38.8422 34.6755C38.5298 34.9955 38.1463 35.1555 37.6917 35.1555Z" fill="black"/>
</svg>
