<svg width="37" height="45" viewBox="0 0 37 45" fill="none" xmlns="http://www.w3.org/2000/svg">
<path d="M18.8167 7.41853C18.0167 7.41853 17.325 7.12686 16.7417 6.54353C16.1583 5.96019 15.8667 5.27269 15.8667 4.48103C15.8667 3.91069 15.996 3.41603 16.2547 2.99703C16.5133 2.57803 17.1562 1.77969 18.1832 0.602026C18.3712 0.411693 18.5813 0.316528 18.8137 0.316528C19.046 0.316528 19.2582 0.411693 19.4502 0.602026C20.4772 1.77969 21.12 2.57736 21.3787 2.99503C21.6373 3.41236 21.7667 3.90769 21.7667 4.48103C21.7667 5.27269 21.475 5.96019 20.8917 6.54353C20.3083 7.12686 19.6167 7.41853 18.8167 7.41853ZM8.26668 7.41853C7.46668 7.41853 6.77501 7.12686 6.19168 6.54353C5.60834 5.96019 5.31668 5.27269 5.31668 4.48103C5.31668 3.91069 5.44601 3.41603 5.70468 2.99703C5.96334 2.57803 6.60618 1.77969 7.63318 0.602026C7.82118 0.411693 8.03134 0.316528 8.26368 0.316528C8.49601 0.316528 8.70818 0.411693 8.90018 0.602026C9.92718 1.77969 10.57 2.57736 10.8287 2.99503C11.0873 3.41236 11.2167 3.90769 11.2167 4.48103C11.2167 5.27269 10.925 5.96019 10.3417 6.54353C9.75834 7.12686 9.06668 7.41853 8.26668 7.41853ZM29.2667 7.41853C28.4667 7.41853 27.775 7.12686 27.1917 6.54353C26.6083 5.96019 26.3167 5.27269 26.3167 4.48103C26.3167 3.91069 26.446 3.41603 26.7047 2.99703C26.9633 2.57803 27.6062 1.77969 28.6332 0.602026C28.8212 0.411693 29.0313 0.316528 29.2637 0.316528C29.496 0.316528 29.7082 0.411693 29.9002 0.602026C30.9272 1.77969 31.57 2.57736 31.8287 2.99503C32.0873 3.41236 32.2167 3.90769 32.2167 4.48103C32.2167 5.27269 31.925 5.96019 31.3417 6.54353C30.7583 7.12686 30.0667 7.41853 29.2667 7.41853ZM4.69068 40.075V42.1195C4.69068 42.7182 4.48001 43.2272 4.05868 43.6465C3.63701 44.0655 3.12518 44.275 2.52318 44.275C1.91651 44.275 1.40568 44.0625 0.990676 43.6375C0.575343 43.2122 0.367676 42.7022 0.367676 42.1075V26.776C0.367676 26.6047 0.378009 26.4292 0.398676 26.2495C0.419343 26.0702 0.467009 25.8892 0.541676 25.7065L4.41768 13.99C4.64168 13.277 5.05001 12.7114 5.64268 12.293C6.23534 11.8744 6.90051 11.665 7.63818 11.665H29.6952C30.4328 11.665 31.098 11.8744 31.6907 12.293C32.2833 12.7114 32.6957 13.277 32.9277 13.99L36.7917 25.7065C36.8663 25.8892 36.916 26.0702 36.9407 26.2495C36.9653 26.4292 36.9777 26.6047 36.9777 26.776V42.1195C36.9777 42.7182 36.766 43.2272 36.3427 43.6465C35.9197 44.0655 35.4058 44.275 34.8012 44.275C34.2005 44.275 33.6823 44.0577 33.2467 43.623C32.8107 43.188 32.5927 42.6662 32.5927 42.0575V40.075H4.69068ZM4.94818 23.276H32.3972L29.6832 15.0835H7.65018L4.94818 23.276ZM9.01468 34.2165C9.78134 34.2165 10.425 33.954 10.9457 33.429C11.4663 32.904 11.7267 32.2665 11.7267 31.5165C11.7267 30.7385 11.4622 30.0774 10.9332 29.533C10.4042 28.9887 9.76868 28.7165 9.02668 28.7165C8.24068 28.7165 7.57751 28.9875 7.03718 29.5295C6.49684 30.0719 6.22668 30.7302 6.22668 31.5045C6.22668 32.2792 6.49568 32.9249 7.03368 33.4415C7.57201 33.9582 8.23234 34.2165 9.01468 34.2165ZM28.3687 34.2165C29.1467 34.2165 29.8078 33.954 30.3522 33.429C30.8965 32.904 31.1687 32.2665 31.1687 31.5165C31.1687 30.7385 30.8977 30.0774 30.3557 29.533C29.8133 28.9887 29.155 28.7165 28.3807 28.7165C27.606 28.7165 26.9603 28.9875 26.4437 29.5295C25.927 30.0719 25.6687 30.7302 25.6687 31.5045C25.6687 32.2792 25.9312 32.9249 26.4562 33.4415C26.9812 33.9582 27.6187 34.2165 28.3687 34.2165ZM3.77418 36.6685H33.5592V26.276H3.77418V36.6685Z" fill="black"/>
</svg>
