<svg width="37" height="42" viewBox="0 0 37 42" fill="none" xmlns="http://www.w3.org/2000/svg">
<path d="M16.6782 37.085V21.938L3.44117 14.289V29.4355L16.6782 37.085ZM20.0012 37.085L33.2262 29.4355V14.239L20.0012 21.938V37.085ZM16.6302 40.977L1.73817 32.399C1.1995 32.0923 0.781002 31.673 0.482668 31.141C0.184002 30.609 0.034668 30.042 0.034668 29.44V12.56C0.034668 11.958 0.184002 11.391 0.482668 10.859C0.781002 10.327 1.1995 9.90766 1.73817 9.60099L16.6302 1.01099C17.1608 0.71232 17.7287 0.562988 18.3337 0.562988C18.9387 0.562988 19.5065 0.71232 20.0372 1.01099L34.9292 9.60099C35.4678 9.90766 35.8883 10.327 36.1907 10.859C36.4933 11.391 36.6447 11.958 36.6447 12.56V29.44C36.6447 30.042 36.4933 30.609 36.1907 31.141C35.8883 31.673 35.4678 32.0923 34.9292 32.399L20.0372 40.977C19.5065 41.2837 18.9387 41.437 18.3337 41.437C17.7287 41.437 17.1608 41.2837 16.6302 40.977ZM26.5097 14.3325L31.3707 11.514L18.3337 3.96949L13.4847 6.77599L26.5097 14.3325ZM18.3337 19.1085L23.2947 16.202L10.2077 8.66949L5.25867 11.514L18.3337 19.1085Z" fill="black"/>
</svg>
